<svg width="191" height="64" viewBox="0 0 191 64" fill="none" xmlns="http://www.w3.org/2000/svg">
<path d="M67.417 5.875H79.822V13.405H77.932V7.645H69.232V13.48H67.417V5.875ZM68.362 10.87H78.982V12.64H68.362V10.87ZM72.622 3.265H74.527V17.35H72.622V3.265ZM84.199 8.395H91.114V9.94H84.199V8.395ZM81.514 11.755H94.939V13.42H81.514V11.755ZM87.289 10.795H89.134V15.43C89.134 16.36 88.909 16.825 88.189 17.095C87.484 17.335 86.524 17.365 85.249 17.365C85.129 16.855 84.799 16.09 84.514 15.625C85.474 15.655 86.599 15.655 86.899 15.655C87.199 15.655 87.289 15.58 87.289 15.37V10.795ZM90.529 8.395H90.979L91.354 8.305L92.494 9.175C91.459 10.285 89.974 11.455 88.504 12.16C88.294 11.86 87.814 11.365 87.544 11.125C88.699 10.525 89.974 9.46 90.529 8.725V8.395ZM81.694 5.65H94.774V9.325H92.989V7.24H83.389V9.325H81.694V5.65ZM92.089 3.37L94.039 3.94C93.349 4.93 92.569 5.95 91.954 6.61L90.484 6.07C91.054 5.335 91.729 4.21 92.089 3.37ZM82.699 4.105L84.229 3.415C84.769 4 85.369 4.81 85.609 5.395L83.974 6.145C83.764 5.59 83.209 4.735 82.699 4.105ZM86.479 3.775L88.069 3.175C88.549 3.835 89.059 4.75 89.254 5.35L87.544 6.01C87.394 5.41 86.929 4.465 86.479 3.775ZM101.431 15.16H109.981V16.93H101.431V15.16ZM102.046 7.915H109.621V9.64H102.046V7.915ZM104.911 3.415H106.756V16.015H104.911V3.415ZM96.046 6.04H100.966V7.675H96.046V6.04ZM98.191 11.17L99.976 9.04V17.365H98.191V11.17ZM98.191 3.28H99.976V6.805H98.191V3.28ZM99.796 9.55C100.321 9.91 102.016 11.41 102.421 11.785L101.326 13.24C100.741 12.46 99.481 11.08 98.806 10.42L99.796 9.55ZM100.306 6.04H100.666L100.981 5.98L101.986 6.64C100.846 9.565 98.581 12.19 96.346 13.6C96.181 13.12 95.761 12.235 95.491 11.89C97.531 10.78 99.511 8.575 100.306 6.37V6.04ZM111.268 15.145C113.953 15.07 118.123 14.92 121.903 14.755L121.843 16.405C118.168 16.615 114.208 16.795 111.508 16.9L111.268 15.145ZM111.193 10.675H123.673V12.355H111.193V10.675ZM113.863 7.795H120.898V9.445H113.863V7.795ZM114.868 11.77L116.923 12.34C116.218 13.75 115.408 15.31 114.733 16.315L113.158 15.79C113.773 14.695 114.493 13.03 114.868 11.77ZM118.588 13.315L120.178 12.49C121.528 13.645 122.923 15.22 123.613 16.36L121.948 17.365C121.318 16.225 119.878 14.515 118.588 13.315ZM117.373 5.02C116.158 6.73 113.818 8.65 111.328 9.835C111.118 9.4 110.638 8.725 110.263 8.335C112.828 7.21 115.228 5.065 116.338 3.295H118.243C119.833 5.5 122.218 7.21 124.603 8.065C124.168 8.515 123.763 9.16 123.433 9.7C121.183 8.65 118.648 6.76 117.373 5.02ZM36.7257 40.1136L37.6703 34.5455H59.7939L58.8493 40.1136H51.1931L47.9118 60H41.1007L44.382 40.1136H36.7257ZM57.7608 60L61.9867 34.5455H72.9739C74.8631 34.5455 76.4582 34.8893 77.7591 35.5771C79.06 36.2648 79.9963 37.255 80.568 38.5476C81.1397 39.8402 81.2765 41.3897 80.9782 43.196C80.6799 45.0189 80.0211 46.556 79.002 47.8072C77.9911 49.0501 76.7026 49.9947 75.1365 50.641C73.5788 51.279 71.8304 51.598 69.8915 51.598H63.329L64.2239 46.2287H69.3944C70.2064 46.2287 70.919 46.1293 71.5321 45.9304C72.1453 45.7232 72.6425 45.4001 73.0236 44.9609C73.4048 44.5135 73.6534 43.9252 73.7694 43.196C73.8854 42.4669 73.8274 41.8744 73.5954 41.4187C73.3633 40.9547 72.978 40.6149 72.4395 40.3995C71.9009 40.1758 71.2338 40.0639 70.4384 40.0639H68.0023L64.6713 60H57.7608ZM74.6145 48.3168L79.0392 60H71.5321L67.2566 48.3168H74.6145ZM92.2099 34.5455L87.984 60H81.0735L85.2994 34.5455H92.2099ZM90.8511 60L95.0769 34.5455H106.114C108.053 34.5455 109.64 34.8065 110.874 35.3285C112.117 35.8505 112.995 36.5879 113.509 37.5408C114.031 38.4937 114.184 39.6165 113.969 40.9091C113.803 41.8371 113.447 42.6864 112.9 43.457C112.362 44.2193 111.678 44.8656 110.849 45.396C110.029 45.918 109.113 46.2784 108.103 46.4773L108.053 46.7259C109.147 46.759 110.099 47.0324 110.911 47.5462C111.723 48.0516 112.32 48.7559 112.701 49.6591C113.082 50.554 113.174 51.598 112.975 52.7912C112.743 54.1832 112.175 55.422 111.272 56.5075C110.369 57.5929 109.196 58.4464 107.755 59.0678C106.313 59.6893 104.672 60 102.833 60H90.8511ZM98.7062 54.4815H101.938C103.081 54.4815 103.98 54.262 104.635 53.8228C105.298 53.3836 105.691 52.7415 105.816 51.8963C105.915 51.2997 105.865 50.7943 105.666 50.38C105.468 49.9657 105.132 49.6508 104.66 49.4354C104.187 49.2199 103.595 49.1122 102.882 49.1122H99.5514L98.7062 54.4815ZM100.297 44.8366H103.131C103.728 44.8366 104.274 44.7414 104.772 44.5508C105.269 44.3602 105.679 44.0826 106.002 43.718C106.325 43.3535 106.528 42.9143 106.611 42.4006C106.735 41.6051 106.545 41.0002 106.039 40.5859C105.542 40.1716 104.871 39.9645 104.026 39.9645H101.093L100.297 44.8366ZM113.822 60L118.048 34.5455H136.393L135.448 40.1136H124.014L123.318 44.4886H133.808L132.863 50.0568H122.373L121.677 54.4318H133.062L132.117 60H113.822ZM135.186 60L139.412 34.5455H157.757L156.813 40.1136H145.378L144.682 44.4886H155.172L154.228 50.0568H143.738L143.042 54.4318H154.427L153.482 60H135.186Z" fill="#FAF234"/>
</svg>
